<mxfile host="app.diagrams.net" modified="2021-06-28T03:17:03.150Z" agent="5.0 (Windows NT 6.1; Win64; x64) AppleWebKit/537.36 (KHTML, like Gecko) Chrome/90.0.4430.212 Safari/537.36" etag="M9TxXMmNd12rosD9APfo" version="14.8.1" type="github">
  <diagram id="YhyQwQ3zHqPLaUrp7Vny" name="Page-1">
    <mxGraphModel dx="868" dy="450" grid="1" gridSize="16" guides="1" tooltips="1" connect="1" arrows="1" fold="1" page="1" pageScale="1" pageWidth="827" pageHeight="1169" background="none" math="0" shadow="0">
      <root>
        <mxCell id="0" />
        <mxCell id="1" parent="0" />
        <mxCell id="BWVNbBzd9Idt_AVKS-UC-18" value="" style="edgeStyle=orthogonalEdgeStyle;rounded=0;orthogonalLoop=1;jettySize=auto;html=1;entryX=0.5;entryY=0;entryDx=0;entryDy=0;" edge="1" parent="1" source="BWVNbBzd9Idt_AVKS-UC-1" target="BWVNbBzd9Idt_AVKS-UC-9">
          <mxGeometry relative="1" as="geometry" />
        </mxCell>
        <mxCell id="BWVNbBzd9Idt_AVKS-UC-1" value="&lt;font style=&quot;font-size: 16px&quot;&gt;0000 0000 0000 &lt;font style=&quot;font-size: 16px&quot;&gt;0101&lt;/font&gt;&lt;/font&gt;" style="rounded=1;whiteSpace=wrap;html=1;fillColor=#ffe6cc;strokeColor=#d79b00;shadow=1;" vertex="1" parent="1">
          <mxGeometry x="128" y="144" width="250" height="32" as="geometry" />
        </mxCell>
        <mxCell id="BWVNbBzd9Idt_AVKS-UC-2" value="&lt;font style=&quot;font-size: 16px&quot;&gt;a = 5&lt;/font&gt;" style="text;html=1;align=center;verticalAlign=middle;resizable=0;points=[];autosize=1;strokeColor=none;perimeterSpacing=2;" vertex="1" parent="1">
          <mxGeometry x="212" y="114" width="64" height="16" as="geometry" />
        </mxCell>
        <mxCell id="BWVNbBzd9Idt_AVKS-UC-3" value="&lt;span style=&quot;line-height: 60%&quot;&gt;&lt;font style=&quot;font-size: 15px&quot;&gt;原码&lt;/font&gt;&lt;/span&gt;" style="text;html=1;align=center;verticalAlign=middle;resizable=0;points=[];autosize=1;" vertex="1" parent="1">
          <mxGeometry x="56" y="152" width="48" height="16" as="geometry" />
        </mxCell>
        <mxCell id="BWVNbBzd9Idt_AVKS-UC-28" value="" style="edgeStyle=orthogonalEdgeStyle;rounded=0;orthogonalLoop=1;jettySize=auto;html=1;" edge="1" parent="1" source="BWVNbBzd9Idt_AVKS-UC-9" target="BWVNbBzd9Idt_AVKS-UC-10">
          <mxGeometry relative="1" as="geometry" />
        </mxCell>
        <mxCell id="BWVNbBzd9Idt_AVKS-UC-9" value="&lt;font style=&quot;font-size: 16px&quot;&gt;0000 0000 0000 &lt;font style=&quot;font-size: 16px&quot;&gt;0101&lt;/font&gt;&lt;/font&gt;" style="rounded=1;whiteSpace=wrap;html=1;fillColor=#ffe6cc;strokeColor=#d79b00;shadow=1;" vertex="1" parent="1">
          <mxGeometry x="128" y="208" width="250" height="32" as="geometry" />
        </mxCell>
        <mxCell id="BWVNbBzd9Idt_AVKS-UC-10" value="&lt;font style=&quot;font-size: 16px&quot;&gt;0000 0000 0000 &lt;font style=&quot;font-size: 16px&quot;&gt;0101&lt;/font&gt;&lt;/font&gt;" style="rounded=1;whiteSpace=wrap;html=1;fillColor=#ffe6cc;strokeColor=#d79b00;shadow=1;" vertex="1" parent="1">
          <mxGeometry x="128" y="272" width="250" height="32" as="geometry" />
        </mxCell>
        <mxCell id="BWVNbBzd9Idt_AVKS-UC-11" value="&lt;span style=&quot;line-height: 60%&quot;&gt;&lt;font style=&quot;font-size: 15px&quot;&gt;反码&lt;/font&gt;&lt;/span&gt;" style="text;html=1;align=center;verticalAlign=middle;resizable=0;points=[];autosize=1;" vertex="1" parent="1">
          <mxGeometry x="56" y="216" width="48" height="16" as="geometry" />
        </mxCell>
        <mxCell id="BWVNbBzd9Idt_AVKS-UC-12" value="&lt;span style=&quot;line-height: 60%&quot;&gt;&lt;font style=&quot;font-size: 15px&quot;&gt;补码&lt;/font&gt;&lt;/span&gt;" style="text;html=1;align=center;verticalAlign=middle;resizable=0;points=[];autosize=1;" vertex="1" parent="1">
          <mxGeometry x="56" y="280" width="48" height="16" as="geometry" />
        </mxCell>
        <mxCell id="BWVNbBzd9Idt_AVKS-UC-13" value="&lt;span style=&quot;font-size: 16px&quot;&gt;1000 0000 0001 0011&lt;/span&gt;" style="rounded=1;whiteSpace=wrap;html=1;fillColor=#ffe6cc;strokeColor=#d79b00;shadow=1;" vertex="1" parent="1">
          <mxGeometry x="432" y="144" width="250" height="32" as="geometry" />
        </mxCell>
        <mxCell id="BWVNbBzd9Idt_AVKS-UC-29" value="" style="edgeStyle=orthogonalEdgeStyle;rounded=0;orthogonalLoop=1;jettySize=auto;html=1;" edge="1" parent="1" source="BWVNbBzd9Idt_AVKS-UC-14" target="BWVNbBzd9Idt_AVKS-UC-15">
          <mxGeometry relative="1" as="geometry" />
        </mxCell>
        <mxCell id="BWVNbBzd9Idt_AVKS-UC-14" value="&lt;span style=&quot;font-size: 16px&quot;&gt;1111 1111 1110 1100&lt;/span&gt;" style="rounded=1;whiteSpace=wrap;html=1;fillColor=#ffe6cc;strokeColor=#d79b00;shadow=1;" vertex="1" parent="1">
          <mxGeometry x="432" y="208" width="250" height="32" as="geometry" />
        </mxCell>
        <mxCell id="BWVNbBzd9Idt_AVKS-UC-15" value="&lt;span style=&quot;font-size: 16px&quot;&gt;1111 1111 1110 1101&lt;/span&gt;" style="rounded=1;whiteSpace=wrap;html=1;fillColor=#ffe6cc;strokeColor=#d79b00;shadow=1;" vertex="1" parent="1">
          <mxGeometry x="432" y="272" width="250" height="32" as="geometry" />
        </mxCell>
        <mxCell id="BWVNbBzd9Idt_AVKS-UC-16" value="&lt;font style=&quot;font-size: 16px&quot;&gt;a = -19&lt;/font&gt;" style="text;html=1;align=center;verticalAlign=middle;resizable=0;points=[];autosize=1;strokeColor=none;perimeterSpacing=2;" vertex="1" parent="1">
          <mxGeometry x="520" y="114" width="80" height="16" as="geometry" />
        </mxCell>
        <mxCell id="BWVNbBzd9Idt_AVKS-UC-34" value="" style="edgeStyle=orthogonalEdgeStyle;rounded=0;orthogonalLoop=1;jettySize=auto;html=1;" edge="1" parent="1">
          <mxGeometry relative="1" as="geometry">
            <mxPoint x="556.5" y="176" as="sourcePoint" />
            <mxPoint x="556.5" y="208" as="targetPoint" />
          </mxGeometry>
        </mxCell>
      </root>
    </mxGraphModel>
  </diagram>
</mxfile>
